<svg xmlns="http://www.w3.org/2000/svg" width="229.8" height="64.4" viewBox="0 0 229.8 64.4" style="enable-background:new 0 0 229.8 64.4" xml:space="preserve"><path fill="#FFF" class="st0" d="m195.4 56.7 5.4-12.4 4.8 12.4h-10.2zm-7.7 7.7h8c.4 0 .5-.3-.1-.4-2.3-.3-2.7-1.7-2-3.5l1.2-2.7H206l1 2.7c.7 1.8.3 2.9-2.3 3.5-.4.1-.4.4 0 .4h11.1c.3 0 .3-.3 0-.4-2.2-.5-3.7-1.9-4.4-3.6l-7.1-18.2c-.6-1.4-.7-2.8-.3-3.8.2-.4.1-.6-.3-.6H197c-.4 0-.5.1-.5.2s0 .2.4.3c1.2.5 2.1 1.8 3 4l-8 18c-.8 1.7-2.2 3.1-4.3 3.6-.2.2-.2.5.1.5M158 38.3c1.3.5 2.5 1.6 3.6 2.9v19c0 1.9-.9 3.3-3 3.8-.3.1-.3.4 0 .4h7.6c.3 0 .3-.3 0-.4-2.2-.5-3-1.9-3-3.8V43.4l15.1 20.8c.2.2.4.3.6.3h5.8c.2 0 .2-.3 0-.4-1-.3-2-1.2-2.9-2.2V42.1c0-1.9.9-3.3 3-3.8.3-.1.3-.4 0-.4h-7.6c-.3 0-.3.3 0 .4 2.2.5 3 1.9 3 3.8v17.6l-15.6-21.5c-.2-.2-.4-.3-.6-.3h-6c-.2 0-.2.3 0 .4m-69.6 3.8v18.1c0 1.9-.9 3.3-3 3.8-.3.1-.3.4 0 .4h19c.2 0 .3-.1.5-.4l1.4-4.8c.2-.5 0-.6-.2-.6s-.3.2-.4.4c-1.4 2.9-3.1 3.8-7.5 3.9l-5.6.2v-21c0-1.9.9-3.3 3-3.8.3-.1.3-.4 0-.4H85.4c-.3 0-.3.3 0 .4 2.1.5 3 1.9 3 3.8m-72.3 0v18.1c0 1.9-.9 3.3-3 3.8-.3.1-.3.4 0 .4h10.3c.3 0 .3-.3 0-.4-2.2-.5-3-1.9-3-3.8V42.1c0-1.9.9-3.3 3-3.8.3-.1.3-.4 0-.4H13.1c-.3 0-.3.3 0 .4 2.1.5 3 1.9 3 3.8M18.5 27l.8-5.8c.1-.5-.4-.6-.6 0-1.2 3.3-3.4 4.6-6.1 4.7l-5.1.1V5c0-1.9.9-3.3 3-3.8.3-.1.3-.4 0-.4H.3c-.3 0-.3.3 0 .4 2.2.5 3 1.9 3 3.8v18.1c0 1.9-.9 3.3-3 3.8-.3.1-.3.4 0 .4h17.9c.1.1.3 0 .3-.3m22.1-7.3H30.4l5.4-12.4 4.8 12.4zM50.9 27c-2.2-.5-3.7-1.9-4.4-3.6L39.4 5.2c-.6-1.4-.7-2.8-.3-3.8.2-.4.1-.6-.3-.6h-6.7c-.4 0-.5.1-.5.2s0 .2.4.3c1.2.5 2.1 1.8 3 4l-8 18c-.8 1.7-2.2 3.1-4.3 3.6-.3.1-.3.4 0 .4h8c.4 0 .5-.3-.1-.4-2.3-.3-2.7-1.7-2-3.4l1.2-2.7H41l1 2.7c.7 1.8.3 2.9-2.3 3.4-.4.1-.4.4 0 .4h11.1c.4.1.4-.3.1-.3m.8 16.3-.3-5c0-.3-.2-.4-.4-.4H30.2c-.2 0-.4.2-.4.4l-.3 5c0 .4 0 .6.2.6s.2-.2.3-.4c1.2-2.8 3.4-4.3 7.7-4.3h.7v21c0 1.9-.9 3.3-3 3.8-.3.1-.3.4 0 .4h10.3c.3 0 .3-.3 0-.4-2.2-.5-3-1.9-3-3.8v-21h.7c4.4 0 6.6 1.5 7.7 4.3.1.3.2.4.3.4.3 0 .4-.2.3-.6m13.9 1 4.8 12.4H60.2l5.4-12.4zm3.1-6.4H62c-.4 0-.5.1-.5.2s0 .2.4.3c1.2.5 2.1 1.8 3 4l-8 18c-.8 1.7-2.2 3.1-4.3 3.6-.3.1-.3.4 0 .4h8c.4 0 .5-.3-.1-.4-2.3-.3-2.7-1.7-2-3.5l1.2-2.7h11.2l1 2.7c.7 1.8.3 2.9-2.3 3.5-.4.1-.4.4 0 .4h11.1c.3 0 .3-.3 0-.4-2.2-.5-3.7-1.9-4.4-3.6l-7.1-18.2c-.6-1.4-.7-2.8-.3-3.8.3-.4.2-.5-.2-.5m20.2-16c.2-.2.1-.4-.1-.6L86.2 19c-.2-.2-.3-.1-.4.1-1.6 4.5-4.6 7.3-8.1 7.3-6 0-10.2-6.4-10.2-13.3C67.6 7.4 70.4 2 75.7 2c2.8 0 5.6 1.6 8.1 5.1.2.2.3.2.5.1l3.1-2.4c.2-.2.2-.4.1-.5C85 1.4 81.6 0 78 0c-7.3 0-15.1 5.6-15.1 14.7 0 8.4 6.4 13.3 13.4 13.3 4.4-.1 9.1-2 12.6-6.1m32-21.1h-8c-.3 0-.3.3 0 .4 2.2.5 3 1.9 3 3.8v11.7c0 6.4-3.3 9.6-8.1 9.6-4 0-7.9-2.6-7.9-8.1V5c0-1.9.9-3.3 3-3.8.3-.1.3-.4 0-.4H92.7c-.3 0-.3.3 0 .4 2.2.5 3 1.9 3 3.8v12.9c0 6.5 4.1 10 11.7 10 6.1 0 10.4-3.8 10.4-11.4V5c0-1.9.9-3.3 3-3.8.4 0 .4-.4.1-.4M118 60.2V42.1c0-1.9.9-3.3 3-3.8.3-.1.3-.4 0-.4h-10.3c-.3 0-.3.3 0 .4 2.2.5 3 1.9 3 3.8v18.1c0 1.9-.9 3.3-3 3.8-.3.1-.3.4 0 .4H121c.3 0 .3-.3 0-.4-2.1-.5-3-1.9-3-3.8m32.4-38.3c.2-.2.1-.4-.1-.6l-2.6-2.3c-.2-.2-.3-.1-.4.1-1.6 4.5-4.6 7.3-8.1 7.3-6 0-10.2-6.4-10.2-13.3 0-5.7 2.8-11.1 8.2-11.1 2.8 0 5.6 1.6 8.1 5.1.2.2.3.2.5.1l3.1-2.4c.2-.2.2-.4.1-.5-2.5-2.9-6-4.3-9.6-4.3-7.3 0-15.1 5.6-15.1 14.7 0 8.4 6.4 13.3 13.4 13.3 4.5-.1 9.2-2 12.7-6.1m-6.3 34.8h-10.2l5.4-12.4 4.8 12.4zm10.3 7.3c-2.2-.5-3.7-1.9-4.4-3.6l-7.1-18.2c-.6-1.4-.7-2.8-.3-3.8.2-.4.1-.6-.3-.6h-6.7c-.4 0-.5.1-.5.2s0 .2.4.3c1.2.5 2.1 1.8 3 4l-8 18c-.8 1.7-2.2 3.1-4.3 3.6-.3.1-.3.4 0 .4h8c.4 0 .5-.3-.1-.4-2.3-.3-2.7-1.7-2-3.5l1.2-2.7h11.2l1 2.7c.7 1.8.3 2.9-2.3 3.5-.4.1-.4.4 0 .4h11.1c.5.1.5-.2.1-.3m7.7-40.8V5c0-1.9.9-3.3 3-3.8.3-.1.3-.4 0-.4h-10.3c-.3 0-.3.3 0 .4 2.2.5 3 1.9 3 3.8v18.1c0 1.9-.9 3.3-3 3.8-.3.1-.3.4 0 .4h10.3c.3 0 .3-.3 0-.4-2.2-.4-3-1.8-3-3.7M198.4.8h-7.6c-.3 0-.3.3 0 .4 2.2.5 3 1.9 3 3.8v17.6L178.2 1.1c-.2-.2-.4-.3-.6-.3h-6c-.2 0-.2.3 0 .4 1.3.5 2.5 1.6 3.6 2.9v19c0 1.9-.9 3.3-3 3.8-.3.1-.3.4 0 .4h7.6c.3 0 .3-.3 0-.4-2.2-.5-3-1.9-3-3.8V6.3l15.1 20.8c.2.2.4.3.6.3h5.8c.2 0 .2-.3 0-.4-1-.3-2-1.2-2.9-2.2V5c0-1.9.9-3.3 3-3.8.3 0 .3-.4 0-.4m20.9 18.9H209l5.4-12.4 4.9 12.4zm10.3 7.3c-2.2-.5-3.7-1.9-4.4-3.6l-7.1-18.2c-.6-1.4-.7-2.8-.3-3.8.2-.4.1-.6-.3-.6h-6.7c-.4 0-.5.1-.5.2s0 .2.4.3c1.2.5 2.1 1.8 3 4l-8 18c-.8 1.7-2.2 3.1-4.3 3.6-.3.1-.3.4 0 .4h8c.4 0 .5-.3-.1-.4-2.3-.3-2.7-1.7-2-3.4l1.2-2.7h11.2l1 2.7c.7 1.8.3 2.9-2.3 3.4-.4.1-.4.4 0 .4h11.1c.4.1.4-.3.1-.3"/></svg>